# xmcd
#
# Track frame offsets: 
#        150
#        16124
#        31725
#        51036
#        67768
#        83041
#        96417
#        110018
#        126034
#        142603
#        156461
#        171239
#
# Disc length: 2467 seconds
#
# Revision: 0
# Processed by: cddbd v1.5.2PL0 Copyright (c) Steve Scherf et al.
# Submitted via: ExactAudioCopy v1.0b4
#
DISCID=8f09a10c
DTITLE=Stackhouse - Big Fish Boogie
DYEAR=2013
DGENRE=Blues
TTITLE0=Sneak Out Through The Backdoor
TTITLE1=Screamin' And Cryin'
TTITLE2=Peltdown
TTITLE3=Serve And Protect
TTITLE4=(You Got) Fine Hands
TTITLE5=Get Fever
TTITLE6=Scandal Boogie (Trbute To Big Walter)
TTITLE7=Flood Water Rising
TTITLE8=Prove Me Wrong
TTITLE9=She Just Wants A Man
TTITLE10=Fine Little Mama
TTITLE11=Hidden Track (Bonus Track)
EXTD=
EXTT0=
EXTT1=
EXTT2=
EXTT3=
EXTT4=
EXTT5=
EXTT6=
EXTT7=
EXTT8=
EXTT9=
EXTT10=
EXTT11=
PLAYORDER=
